<svg width="1990" height="248" viewBox="0 0 1990 248" fill="none" xmlns="http://www.w3.org/2000/svg">
<path d="M1112.13 2.13342C1056.93 9.73342 1019.47 41.4668 1007.07 90.9334C1004.53 100.667 1004.13 106.4 1004.13 124.667C1004.13 151.2 1006.4 161.867 1016.8 183.067C1027.47 204.533 1044.4 221.333 1066.8 232.533C1102.13 250.267 1153.87 252 1190.13 236.8C1228.13 220.8 1251.73 192.667 1260.27 152.667C1263.73 136.133 1263.47 107.867 1259.6 92.4001C1245.87 36.8001 1201.47 3.20009 1139.33 1.33342C1129.47 1.06675 1117.2 1.33342 1112.13 2.13342ZM1149.33 62.5334C1177.2 69.8667 1194 93.0668 1194 124C1194 150.933 1182.13 171.067 1159.87 181.6C1151.2 185.733 1148.13 186.533 1137.6 187.067C1098.4 189.067 1072.53 164 1072.4 124C1072.4 98.6668 1082.53 79.7334 1102.27 68.1334C1114.27 61.2001 1135.07 58.6667 1149.33 62.5334Z" fill="white"/>
<path d="M1845.33 2.5332C1811.6 7.86654 1782.93 24.1332 1764.4 48.5332C1742.4 77.5999 1735.47 120.667 1746.13 161.467C1756.8 202 1787.2 230.8 1832.53 243.067C1844 246.133 1847.87 246.533 1868.67 246.533C1894.67 246.533 1906.93 244.667 1924.8 237.867C1952.27 227.333 1973.6 205.2 1982.67 178C1986.4 166.933 1990.13 149.2 1988.93 148C1988 147.067 1930.13 147.2 1926.67 148.133C1925.07 148.533 1922.4 152.267 1919.73 157.867C1911.2 175.867 1895.87 186 1875.6 187.067C1855.73 188.133 1840.27 182.533 1827.6 169.733C1815.6 157.733 1810 143.2 1810 124.667C1810 98.2665 1823.33 76.1332 1845.6 65.5999C1854.27 61.5999 1855.47 61.3332 1870.67 61.3332C1885.87 61.3332 1887.07 61.5999 1895.6 65.5999C1906.13 70.5332 1914 78.2665 1918.67 87.9999C1924 99.4665 1923.47 99.3332 1958.8 99.3332H1989.73L1987.73 89.1999C1981.07 53.9999 1963.33 29.4665 1933.73 14.5332C1910.27 2.66653 1874.93 -2.00013 1845.33 2.5332Z" fill="white"/>
<path d="M0.666016 124.001V239.334H35.3327H69.9994V173.734V108.001L93.066 131.067L115.999 154.001H141.733H167.333V196.667V239.334H201.999H236.666V124.001V8.66731H201.999H167.333V51.334V94.0006H118.666H69.9994L69.7327 51.6006L69.3327 9.33397L35.066 8.93397L0.666016 8.66731V124.001Z" fill="white"/>
<path d="M250.266 11.6006C251.332 13.334 272.266 48.534 296.932 90.0006L341.732 165.334L342.666 202.267L343.732 239.334H378.132H412.666V203.601V167.734L395.466 137.867C385.999 121.467 365.466 85.734 349.732 58.6673L321.332 9.33397L284.799 8.93398L248.266 8.66731L250.266 11.6006Z" fill="white"/>
<path d="M415.999 38.3998C406.532 54.6665 398.799 68.9331 398.799 69.9998C398.799 71.1998 406.399 85.4665 415.865 101.733C430.799 127.733 433.199 131.2 434.665 129.066C438.265 123.6 505.999 10.1331 505.999 9.46645C505.999 9.06645 489.599 8.66646 469.732 8.66646L433.332 8.79979L415.999 38.3998Z" fill="white"/>
<path d="M519.332 123.867V239.334H553.732H587.999L587.599 188.001C587.332 159.734 587.732 136.667 588.265 136.667C588.932 136.667 600.132 147.467 613.332 160.667L637.332 184.667H643.999C656.799 184.667 680.132 181.867 689.999 179.201C703.465 175.601 714.532 169.067 723.465 159.734C732.799 150.001 736.799 142.934 741.199 128.801C749.865 101.201 745.732 64.934 731.732 43.6006C721.865 28.934 707.332 19.734 682.665 13.0673L669.332 9.4673L594.399 8.93398L519.332 8.53397V123.867ZM650.665 67.334C660.265 68.934 668.132 74.0006 672.265 81.334C674.665 85.6006 675.332 88.8006 675.332 96.8006C675.332 109.867 671.865 116.934 662.665 122.667L656.265 126.667L622.399 127.067L588.665 127.601V96.8006V66.0006H615.732C630.532 66.0006 646.265 66.6673 650.665 67.334Z" fill="white"/>
<path d="M764.666 124.001V239.334H798.666H832.666V183.734V128.001L888.399 183.734L943.999 239.334L964.666 239.201C975.999 239.067 995.066 238.534 1007.07 238.134L1028.8 237.334L992.666 200.401L956.533 163.467L967.066 153.067C975.199 144.934 978.666 140.267 982.266 132.667C990.266 115.734 992.666 99.6006 990.133 80.2673C985.466 45.2006 969.333 25.334 937.333 15.4673C917.866 9.33397 907.066 8.66731 833.733 8.66731H764.666V124.001ZM905.333 69.0673C911.733 71.8673 916.133 75.8673 919.066 81.334C921.999 86.8006 921.999 103.867 919.066 109.467C915.866 115.334 908.266 121.601 902.399 123.201C899.466 124.001 883.466 124.667 865.066 124.667H832.666V95.2006V65.734L866.399 66.2673C894.666 66.6673 900.799 67.2006 905.333 69.0673Z" fill="white"/>
<path d="M1266 38.0006V67.334H1308H1350V153.334V239.334H1384.67H1419.33V187.734V136.134L1385.07 101.734L1350.8 67.334L1426.67 67.0673L1502.67 66.6673V38.0006V9.33397L1384.4 8.93398L1266 8.66731V38.0006Z" fill="white"/>
<path d="M1523.33 99.0673V189.334L1548.4 214.401L1573.33 239.334H1650.4H1727.33L1727.07 211.601L1726.67 184.001L1659.73 183.601L1592.67 183.334V142.667C1592.67 120.267 1593.07 102.001 1593.73 102.001C1594.27 102.001 1604.93 112.134 1617.33 124.667L1640 147.334H1680.93H1722V124.001V100.667H1657.33H1592.67V82.6673V64.6673L1659.73 64.4006L1726.67 64.0006L1727.07 36.2673L1727.33 8.66731H1625.33H1523.33V99.0673Z" fill="white"/>
</svg>
