<?xml version="1.0" standalone="no"?>
<!DOCTYPE svg PUBLIC "-//W3C//DTD SVG 20010904//EN"
 "http://www.w3.org/TR/2001/REC-SVG-20010904/DTD/svg10.dtd">
<svg version="1.0" xmlns="http://www.w3.org/2000/svg"
 width="265.000000pt" height="105.000000pt" viewBox="0 0 265.000000 105.000000"
 preserveAspectRatio="xMidYMid meet">

<g transform="translate(0.000000,105.000000) scale(0.100000,-0.100000)"
fill="#000000" stroke="none">
<path d="M2383 941 c-82 -39 -123 -129 -123 -273 0 -150 55 -252 150 -278 55
-15 146 -8 188 14 32 16 32 17 17 46 -15 29 -17 30 -43 16 -83 -42 -151 -24
-184 51 -30 68 -30 237 0 305 11 25 29 51 40 57 30 16 105 14 128 -4 27 -20
31 -19 49 15 15 29 15 30 -17 46 -51 26 -154 29 -205 5z"/>
<path d="M485 926 c-27 -13 -67 -41 -88 -62 l-38 -38 46 -12 c57 -14 102 -56
117 -109 6 -22 13 -42 14 -44 2 -2 43 14 91 35 71 30 104 39 175 43 l87 6 -18
40 c-63 139 -248 206 -386 141z"/>
<path d="M1110 670 l0 -280 169 0 c184 0 181 1 181 -60 0 -49 9 -60 51 -60
l39 0 0 89 0 90 -27 3 -28 3 -3 248 -2 247 -50 0 -50 0 0 -250 0 -251 -87 3
-88 3 -3 248 -2 247 -50 0 -50 0 0 -280z"/>
<path d="M1700 670 l0 -280 170 0 169 0 6 -37 c14 -84 13 -83 50 -83 l35 0 0
90 c0 89 0 90 -25 90 l-25 0 0 250 0 250 -50 0 -50 0 -2 -247 -3 -248 -85 0
-85 0 -3 248 -2 247 -50 0 -50 0 0 -280z"/>
<path d="M70 871 c-123 -173 -63 -434 125 -542 27 -16 53 -29 56 -29 4 0 -26
33 -66 73 -55 55 -77 86 -94 131 -42 114 -37 236 14 337 30 61 30 59 6 59 -11
0 -29 -13 -41 -29z"/>
<path d="M143 823 c-25 -52 -28 -68 -28 -163 0 -92 3 -112 26 -160 80 -168
266 -260 438 -216 87 22 109 37 45 29 -140 -16 -299 89 -350 229 -23 62 -20
171 5 237 11 30 18 57 16 62 -6 8 -92 39 -111 39 -7 0 -25 -26 -41 -57z"/>
</g>
</svg>
