<?xml version="1.0" standalone="no"?>
<!DOCTYPE svg PUBLIC "-//W3C//DTD SVG 20010904//EN"
 "http://www.w3.org/TR/2001/REC-SVG-20010904/DTD/svg10.dtd">
<svg version="1.0" xmlns="http://www.w3.org/2000/svg"
 width="469.000000pt" height="197.000000pt" viewBox="0 0 469.000000 197.000000"
 preserveAspectRatio="xMidYMid meet">

<g transform="translate(0.000000,197.000000) scale(0.100000,-0.100000)"
fill="#000000" stroke="none">
<path d="M1168 1835 c-4 -11 -28 -126 -53 -255 -54 -270 -55 -308 -6 -352 41
-36 81 -37 121 -1 53 48 53 72 -4 364 -31 156 -55 256 -58 244z m55 -511 c1
-39 -3 -57 -17 -73 -39 -43 -86 -13 -86 53 0 42 36 258 47 286 7 18 52 -196
56 -266z"/>
<path d="M717 1384 c-21 -14 -36 -28 -34 -31 3 -2 13 3 24 11 10 9 27 22 38
30 34 26 12 18 -28 -10z"/>
<path d="M763 1374 c-24 -14 -43 -30 -43 -36 0 -6 10 -2 23 9 12 11 36 28 52
36 17 9 26 16 20 17 -5 0 -29 -12 -52 -26z"/>
<path d="M788 1349 c-21 -11 -38 -25 -38 -31 0 -7 7 -5 18 4 9 9 31 23 47 31
17 9 26 16 20 16 -5 0 -27 -9 -47 -20z"/>
<path d="M649 1323 c-13 -17 -13 -17 6 -3 11 8 22 16 24 17 2 2 0 3 -6 3 -6 0
-17 -8 -24 -17z"/>
<path d="M820 1327 c-14 -6 -31 -20 -38 -29 -7 -10 -17 -16 -22 -13 -5 3 -11
1 -14 -4 -10 -15 21 -6 41 12 10 9 34 23 53 31 19 8 28 15 20 15 -8 0 -26 -6
-40 -12z"/>
<path d="M716 1302 c-3 -5 1 -9 9 -9 8 0 12 4 9 9 -3 4 -7 8 -9 8 -2 0 -6 -4
-9 -8z"/>
<path d="M823 1288 c-13 -6 -23 -15 -23 -20 0 -7 31 8 59 29 10 7 -16 1 -36
-9z"/>
<path d="M766 1251 c-4 -5 -2 -12 3 -15 5 -4 12 -2 15 3 4 5 2 12 -3 15 -5 4
-12 2 -15 -3z"/>
<path d="M1420 1255 c0 -4 -22 -107 -50 -229 -27 -122 -50 -225 -50 -229 0 -4
20 -7 44 -7 l43 0 9 53 9 52 46 3 47 3 6 -38 c13 -72 14 -73 60 -73 l43 0 -46
233 -47 232 -57 3 c-31 2 -57 0 -57 -3z m84 -247 c6 -38 6 -38 -29 -38 -19 0
-35 5 -35 11 0 6 8 52 17 103 l17 91 12 -65 c7 -36 15 -82 18 -102z"/>
<path d="M1693 1254 l-23 -5 0 -230 0 -229 45 0 45 0 0 85 0 84 38 6 c60 9
102 36 123 77 37 73 18 163 -42 193 -31 17 -145 28 -186 19z m137 -84 c42 -42
15 -130 -41 -130 l-29 0 0 68 c0 38 3 72 7 75 13 13 43 7 63 -13z"/>
<path d="M1990 1025 l0 -235 45 0 45 0 0 100 c0 77 3 100 13 100 25 0 46 -35
62 -102 23 -100 22 -98 72 -98 37 0 44 3 39 18 -3 9 -10 37 -16 62 -6 25 -16
63 -22 84 -5 22 -23 52 -39 67 l-28 27 55 106 56 107 -52 -3 -52 -3 -42 -105
-41 -105 -3 108 -3 107 -44 0 -45 0 0 -235z"/>
<path d="M2300 1220 l0 -40 40 0 40 0 0 -195 0 -195 45 0 45 0 2 193 3 192 43
3 c42 3 42 3 42 43 l0 39 -130 0 -130 0 0 -40z"/>
<path d="M2610 1025 l0 -235 44 0 43 0 23 58 c12 31 40 102 61 157 l38 100 1
-157 0 -158 40 0 40 0 0 235 0 235 -43 0 -44 0 -63 -160 c-34 -88 -63 -160
-64 -160 0 0 1 72 2 160 l4 160 -41 0 -41 0 0 -235z"/>
<path d="M2980 1025 l0 -235 45 0 45 0 0 100 c0 73 3 100 13 100 31 -1 49 -29
67 -110 21 -95 17 -90 66 -90 24 0 44 3 44 6 0 19 -44 172 -56 195 -8 16 -23
33 -34 39 -19 10 -18 15 35 120 l55 110 -49 0 -49 0 -37 -97 c-21 -54 -42
-102 -46 -107 -5 -6 -9 36 -9 97 l0 107 -45 0 -45 0 0 -235z"/>
<path d="M3310 1025 l0 -235 45 0 45 0 0 195 0 195 65 0 65 0 0 40 0 40 -110
0 -110 0 0 -235z"/>
<path d="M3615 1238 c-3 -13 -28 -119 -54 -235 l-48 -213 43 0 c39 0 44 3 50
28 16 75 18 77 65 77 l44 0 9 -52 9 -53 43 0 c24 0 44 4 44 8 0 5 -20 109 -45
232 -25 123 -45 225 -45 227 0 2 -25 3 -55 3 -48 0 -55 -3 -60 -22z m84 -245
c1 -19 -4 -23 -32 -23 l-34 0 14 88 c8 48 17 94 20 102 6 14 31 -116 32 -167z"/>
<path d="M3888 1249 c-24 -9 -26 -14 -21 -42 8 -41 6 -39 37 -27 57 21 99 2
99 -45 0 -34 -34 -65 -69 -65 -21 0 -24 -5 -24 -34 0 -31 3 -34 39 -40 66 -10
93 -74 50 -117 -19 -19 -30 -21 -80 -16 -52 5 -59 3 -59 -13 0 -10 -3 -25 -6
-33 -9 -25 82 -39 146 -23 73 19 102 51 108 118 3 44 0 58 -18 81 -13 16 -34
33 -49 39 -24 9 -25 11 -6 18 50 19 77 88 56 142 -22 58 -123 86 -203 57z"/>
<path d="M913 1242 c10 -4 24 -20 32 -36 11 -20 11 -26 3 -20 -7 5 -25 9 -40
8 -15 0 -25 3 -22 7 3 5 -1 9 -9 9 -8 0 -14 -8 -13 -17 1 -11 -11 -21 -32 -28
-19 -7 -39 -23 -48 -39 -13 -26 -12 -30 3 -42 10 -7 22 -14 26 -14 4 0 7 -8 5
-17 -2 -12 3 -18 15 -17 12 1 17 -6 17 -24 0 -20 -3 -23 -12 -14 -14 14 -42
16 -33 2 16 -25 83 -45 142 -41 21 1 83 46 82 59 -3 19 2 33 10 28 5 -3 12 1
15 10 9 24 7 86 -3 80 -5 -4 -7 2 -5 11 6 23 -50 83 -77 83 -10 0 -19 4 -19 8
0 4 -12 8 -27 9 -20 1 -23 0 -10 -5z m82 -92 c10 -11 16 -20 13 -20 -3 0 -13
9 -23 20 -10 11 -16 20 -13 20 3 0 13 -9 23 -20z m-179 -40 c0 -22 -4 -24 -25
-11 -11 7 -10 11 5 20 11 6 19 11 19 11 1 0 1 -9 1 -20z m46 2 c-9 -3 -8 -7 2
-18 8 -8 21 -11 29 -8 8 3 17 -1 20 -9 3 -7 0 -14 -6 -14 -7 0 -25 -3 -41 -6
-16 -4 -26 -3 -22 0 3 3 1 12 -5 19 -16 19 -2 54 19 47 10 -4 12 -8 4 -11z
m172 -7 c-7 -16 -24 -21 -24 -6 0 8 7 13 27 20 1 1 0 -6 -3 -14z m-55 -21 c4
3 7 -4 6 -16 -1 -11 -9 -24 -18 -30 -20 -10 -23 2 -5 20 8 8 9 12 1 12 -7 0
-9 9 -5 23 5 18 7 19 10 4 2 -9 7 -15 11 -13z m-62 -91 c-3 -10 -5 -2 -5 17 0
19 2 27 5 18 2 -10 2 -26 0 -35z"/>
<path d="M900 1210 c0 -5 7 -10 15 -10 8 0 15 5 15 10 0 6 -7 10 -15 10 -8 0
-15 -4 -15 -10z"/>
<path d="M1098 1083 c-3 -38 -3 -76 0 -86 4 -17 5 -17 19 0 11 13 11 11 -1 -9
-9 -15 -16 -35 -16 -44 0 -15 2 -15 22 2 l22 19 -21 -30 c-11 -16 -21 -45 -21
-63 -1 -30 1 -32 16 -21 9 7 26 20 38 29 11 8 3 -2 -18 -23 -58 -57 -52 -67
37 -67 l75 0 0 180 0 180 -74 0 -74 0 -4 -67z m50 -173 c-12 -16 -26 -30 -32
-30 -5 0 3 14 19 30 16 17 30 30 32 30 2 0 -6 -13 -19 -30z"/>
<path d="M590 1128 c0 -7 5 -20 10 -28 8 -12 10 -11 10 7 0 12 -4 25 -10 28
-5 3 -10 0 -10 -7z"/>
<path d="M572 1105 c0 -16 2 -22 5 -12 2 9 2 23 0 30 -3 6 -5 -1 -5 -18z"/>
<path d="M632 1100 c0 -19 2 -27 5 -17 2 9 2 25 0 35 -3 9 -5 1 -5 -18z"/>
<path d="M736 1100 c7 -38 34 -103 40 -97 3 2 -2 17 -11 33 -8 16 -15 38 -15
49 0 11 -5 27 -10 35 -7 11 -8 5 -4 -20z"/>
<path d="M666 1093 c11 -50 26 -94 30 -90 3 2 0 16 -6 31 -5 15 -11 40 -12 56
-1 17 -6 30 -10 30 -5 0 -6 -12 -2 -27z"/>
<path d="M706 1080 c4 -19 10 -42 15 -50 11 -18 1 34 -13 65 -5 13 -6 9 -2
-15z"/>
<path d="M601 1064 c0 -11 3 -14 6 -6 3 7 2 16 -1 19 -3 4 -6 -2 -5 -13z"/>
<path d="M641 1044 c0 -11 3 -14 6 -6 3 7 2 16 -1 19 -3 4 -6 -2 -5 -13z"/>
<path d="M611 1024 c0 -11 3 -14 6 -6 3 7 2 16 -1 19 -3 4 -6 -2 -5 -13z"/>
<path d="M650 1016 c0 -11 30 -66 36 -66 2 0 -3 15 -12 33 -19 36 -24 44 -24
33z"/>
<path d="M620 994 c0 -6 7 -19 16 -30 14 -18 14 -18 3 6 -14 31 -19 36 -19 24z"/>
<path d="M810 966 c0 -2 7 -7 16 -10 8 -3 12 -2 9 4 -6 10 -25 14 -25 6z"/>
<path d="M814 926 c11 -9 24 -16 30 -16 12 0 7 5 -24 19 -24 11 -24 11 -6 -3z"/>
<path d="M898 933 c12 -2 30 -2 40 0 9 3 -1 5 -23 4 -22 0 -30 -2 -17 -4z"/>
<path d="M780 905 c0 -8 61 -36 70 -33 5 2 -9 11 -30 20 -22 9 -40 15 -40 13z"/>
<path d="M860 907 c9 -9 80 -15 85 -8 2 4 -17 8 -43 10 -25 1 -44 0 -42 -2z"/>
<path d="M787 859 c7 -7 15 -10 18 -7 3 3 -2 9 -12 12 -14 6 -15 5 -6 -5z"/>
<path d="M893 863 c15 -2 37 -2 50 0 12 2 0 4 -28 4 -27 0 -38 -2 -22 -4z"/>
<path d="M750 841 c14 -11 30 -21 35 -21 11 0 -7 14 -40 31 -13 7 -12 3 5 -10z"/>
<path d="M863 833 c9 -2 25 -2 35 0 9 3 1 5 -18 5 -19 0 -27 -2 -17 -5z"/>
<path d="M920 835 c0 -7 30 -13 34 -7 3 4 -4 9 -15 9 -10 1 -19 0 -19 -2z"/>
<path d="M814 809 c10 -6 48 -13 85 -15 l66 -3 -60 8 c-33 4 -71 11 -85 15
-22 6 -23 6 -6 -5z"/>
<path d="M893 763 c9 -2 25 -2 35 0 9 3 1 5 -18 5 -19 0 -27 -2 -17 -5z"/>
<path d="M1340 520 c0 -25 -4 -30 -25 -30 -29 0 -45 -26 -45 -73 0 -36 25 -67
53 -67 11 0 17 -8 17 -25 0 -14 5 -25 10 -25 6 0 10 11 10 25 0 18 5 25 18 25
28 0 52 32 52 69 0 45 -16 71 -45 71 -21 0 -25 5 -25 30 0 17 -4 30 -10 30 -5
0 -10 -13 -10 -30z m0 -101 c0 -36 -4 -49 -15 -49 -33 0 -44 82 -12 102 20 12
27 -2 27 -53z m54 45 c30 -29 15 -94 -21 -94 -14 0 -19 90 -6 103 9 9 9 9 27
-9z"/>
<path d="M1128 529 c-22 -12 -39 -73 -31 -110 6 -33 46 -69 75 -69 35 0 68 45
68 93 0 76 -56 119 -112 86z m76 -31 c22 -31 20 -84 -4 -108 -24 -24 -38 -25
-62 -3 -20 18 -25 82 -8 114 14 26 55 24 74 -3z"/>
<path d="M2722 528 c3 -7 15 -15 27 -16 25 -4 50 13 36 25 -4 5 -10 2 -12 -4
-5 -15 -33 -17 -33 -3 0 6 -5 10 -11 10 -6 0 -9 -6 -7 -12z"/>
<path d="M1470 425 c0 -38 4 -65 10 -65 6 0 24 21 40 47 l30 47 0 -47 c0 -26
5 -47 10 -47 6 0 10 28 10 65 0 37 -4 65 -10 65 -5 0 -23 -21 -40 -47 l-30
-48 0 48 c0 26 -4 47 -10 47 -6 0 -10 -28 -10 -65z"/>
<path d="M1620 425 l0 -65 46 0 c37 0 47 -4 51 -20 3 -11 9 -20 14 -20 12 0
11 47 -1 55 -5 3 -10 31 -10 61 0 30 -4 54 -10 54 -6 0 -10 -27 -10 -60 l0
-60 -30 0 -30 0 0 60 c0 33 -4 60 -10 60 -6 0 -10 -28 -10 -65z"/>
<path d="M1770 425 c0 -80 13 -84 55 -17 l30 47 3 -47 c5 -72 22 -58 22 17 0
81 -16 85 -57 18 l-28 -48 -3 48 c-5 71 -22 57 -22 -18z"/>
<path d="M1933 483 c-13 -5 -19 -33 -7 -33 3 0 12 7 20 15 12 11 20 12 35 5
26 -14 24 -30 -4 -30 -28 0 -67 -26 -67 -45 0 -24 31 -47 54 -40 12 4 29 7 39
6 14 0 17 9 17 53 0 28 -5 57 -12 64 -12 12 -52 15 -75 5z m67 -78 c0 -22 -38
-39 -56 -24 -11 9 -12 15 -3 25 15 19 59 18 59 -1z"/>
<path d="M2074 443 c-3 -27 -11 -54 -17 -61 -12 -15 -3 -26 16 -19 8 3 17 27
21 56 6 46 9 51 31 51 24 0 25 -3 25 -55 0 -30 5 -55 10 -55 6 0 10 28 10 65
l0 65 -44 0 -45 0 -7 -47z"/>
<path d="M2210 424 l0 -65 46 3 c79 5 89 67 13 78 -26 4 -35 10 -37 28 -7 48
-22 18 -22 -44z m68 -3 c23 -14 10 -46 -21 -49 -23 -3 -27 0 -27 21 0 36 19
47 48 28z"/>
<path d="M2350 425 c0 -37 4 -65 10 -65 6 0 10 11 10 25 0 22 4 25 35 25 31 0
35 -3 35 -25 0 -14 5 -25 10 -25 6 0 10 28 10 65 0 64 -16 91 -22 38 -2 -23
-8 -29 -35 -31 -31 -3 -33 -1 -33 27 0 17 -4 31 -10 31 -6 0 -10 -28 -10 -65z"/>
<path d="M2500 424 l0 -65 46 3 c79 5 89 67 13 78 -26 4 -35 10 -37 28 -7 48
-22 18 -22 -44z m68 -3 c23 -14 10 -46 -21 -49 -23 -3 -27 0 -27 21 0 36 19
47 48 28z"/>
<path d="M2630 425 c0 -51 3 -65 15 -65 12 0 15 14 15 65 0 51 -3 65 -15 65
-12 0 -15 -14 -15 -65z"/>
<path d="M2700 425 c0 -78 17 -86 51 -25 13 22 26 40 31 40 4 0 8 -18 8 -40 0
-22 5 -40 10 -40 6 0 10 28 10 65 0 80 -13 84 -55 17 l-30 -47 -3 48 c-5 71
-22 57 -22 -18z"/>
<path d="M2910 425 c0 -51 3 -65 15 -65 12 0 15 13 15 55 0 54 0 55 30 55 30
0 30 -1 30 -55 0 -30 5 -55 10 -55 6 0 10 28 10 65 l0 65 -55 0 -55 0 0 -65z"/>
<path d="M3070 475 c-18 -22 -5 -30 21 -12 11 9 28 13 35 10 26 -10 14 -29
-23 -39 -31 -7 -39 -14 -41 -36 -4 -34 22 -49 70 -42 l35 6 -4 52 c-3 28 -6
57 -8 64 -6 17 -70 15 -85 -3z m70 -74 c0 -22 -37 -38 -52 -23 -17 17 -1 42
27 42 18 0 25 -5 25 -19z"/>
<path d="M3200 393 c0 -55 4 -93 10 -93 6 0 10 14 10 31 0 28 2 31 25 25 37
-9 63 9 71 49 4 25 1 43 -10 60 -14 21 -24 25 -61 23 l-45 -1 0 -94z m88 36
c4 -43 -20 -69 -46 -52 -20 12 -26 36 -18 69 5 20 12 25 34 22 23 -3 27 -8 30
-39z"/>
<path d="M3330 480 c0 -5 11 -10 25 -10 24 0 25 -3 25 -55 0 -30 5 -55 10 -55
6 0 10 25 10 55 0 48 2 55 20 55 11 0 20 5 20 10 0 6 -25 10 -55 10 -30 0 -55
-4 -55 -10z"/>
<path d="M3470 425 c0 -37 4 -65 10 -65 6 0 10 11 10 25 0 22 4 25 35 25 31 0
35 -3 35 -25 0 -14 5 -25 10 -25 6 0 10 28 10 65 0 64 -16 91 -22 38 -2 -23
-8 -29 -35 -31 -31 -3 -33 -1 -33 27 0 17 -4 31 -10 31 -6 0 -10 -28 -10 -65z"/>
<path d="M3626 468 c-31 -44 -6 -118 40 -118 21 0 54 19 54 31 0 6 -7 6 -19
-1 -27 -14 -37 -13 -55 6 -26 25 -19 34 29 34 40 0 45 2 45 23 0 13 -5 28 -12
35 -20 20 -65 14 -82 -10z m72 -20 c3 -14 -3 -18 -27 -18 -29 0 -41 17 -24 34
13 13 48 1 51 -16z"/>
<path d="M3750 393 c0 -76 3 -93 15 -93 10 0 15 10 15 31 0 26 3 29 20 24 50
-16 89 59 56 110 -14 21 -23 24 -61 23 l-45 -2 0 -93z m90 52 c14 -37 -4 -77
-33 -73 -19 3 -22 10 -25 51 -3 45 -2 47 23 47 18 0 28 -7 35 -25z"/>
</g>
</svg>
