<?xml version="1.0" encoding="UTF-8"?> <svg xmlns="http://www.w3.org/2000/svg" width="140" height="37" viewBox="0 0 140 37" fill="none"> <path d="M44.4475 0.0723088H0.237941C0.0535537 0.0723088 -0.0621404 -0.0867706 0.0354765 0.0723088L2.09989 3.87937C2.14328 3.95168 2.22282 3.87937 2.30597 3.87937H35.568C35.7247 3.87931 35.8787 3.92034 36.0146 3.99834C36.1506 4.07635 36.2636 4.18861 36.3427 4.32395C36.4217 4.45929 36.4638 4.61297 36.4649 4.76968C36.466 4.92638 36.426 5.08064 36.349 5.21708L29.4001 17.5277C29.3374 17.634 29.2544 17.727 29.1558 17.8012C29.0572 17.8755 28.9449 17.9296 28.8254 17.9605C28.7059 17.9914 28.5815 17.9985 28.4592 17.9813C28.337 17.9641 28.2193 17.9229 28.113 17.8603C28.0066 17.7976 27.9137 17.7146 27.8394 17.616C27.7651 17.5174 27.711 17.4051 27.6801 17.2856C27.6492 17.1661 27.6422 17.0417 27.6594 16.9194C27.6766 16.7972 27.7177 16.6795 27.7804 16.5732C29.2844 14.1581 34.5485 5.63647 34.5485 5.56055C34.5485 5.48462 7.17959 5.61478 3.48461 5.63286C3.44254 5.63322 3.40131 5.64469 3.36511 5.66612C3.32891 5.68755 3.29901 5.71817 3.27846 5.75488C3.2579 5.79158 3.24742 5.83307 3.24807 5.87513C3.24871 5.9172 3.26047 5.95834 3.28214 5.9944L14.7359 25.6335C14.7574 25.6694 14.7878 25.6992 14.8242 25.7198C14.8607 25.7405 14.9019 25.7514 14.9437 25.7514C14.9856 25.7514 15.0268 25.7405 15.0632 25.7198C15.0997 25.6992 15.1301 25.6694 15.1516 25.6335L17.4149 21.8626C17.4362 21.8257 17.4473 21.784 17.4473 21.7415C17.4473 21.6989 17.4362 21.6572 17.4149 21.6203L11.6591 11.5477C11.5613 11.3776 11.51 11.1846 11.5105 10.9884C11.5109 10.7921 11.5631 10.5994 11.6617 10.4297C11.7603 10.26 11.9018 10.1193 12.0721 10.0217C12.2424 9.92408 12.4354 9.87306 12.6317 9.87377H26.8114C27.0267 9.88783 27.2286 9.98327 27.3761 10.1407C27.5236 10.2982 27.6057 10.5058 27.6057 10.7216C27.6057 10.9373 27.5236 11.145 27.3761 11.3025C27.2286 11.4599 27.0267 11.5553 26.8114 11.5694H13.6693L28.583 36.7799C28.6049 36.8142 28.6351 36.8425 28.6708 36.8621C28.7065 36.8817 28.7465 36.8919 28.7873 36.8919C28.828 36.8919 28.868 36.8817 28.9038 36.8621C28.9395 36.8425 28.9696 36.8142 28.9915 36.7799L37.7011 23.2834C37.7217 23.2472 37.7325 23.2063 37.7326 23.1646C37.7327 23.123 37.7221 23.082 37.7017 23.0456C37.6814 23.0093 37.652 22.9788 37.6164 22.9571C37.5809 22.9354 37.5403 22.9233 37.4987 22.9219H34.8232C34.5433 22.9222 34.2678 22.9917 34.0212 23.1241C33.7745 23.2566 33.5645 23.4479 33.4096 23.6811L28.9915 30.3299C28.9696 30.3643 28.9395 30.3925 28.9038 30.4121C28.868 30.4317 28.828 30.442 28.7873 30.442C28.7465 30.442 28.7065 30.4317 28.6708 30.4121C28.6351 30.3925 28.6049 30.3643 28.583 30.3299L20.2458 16.4466C20.1618 16.3095 20.1065 16.1567 20.0833 15.9975C20.0601 15.8384 20.0693 15.6762 20.1106 15.5207C20.1518 15.3653 20.2241 15.2198 20.3232 15.0931C20.4222 14.9664 20.546 14.8611 20.6869 14.7835C20.964 14.6312 21.2903 14.5952 21.594 14.6833C21.8977 14.7714 22.154 14.9765 22.3066 15.2535L28.5613 26.0601C28.5828 26.096 28.6133 26.1258 28.6497 26.1465C28.6861 26.1671 28.7273 26.178 28.7692 26.178C28.8111 26.178 28.8522 26.1671 28.8887 26.1465C28.9251 26.1258 28.9556 26.096 28.9771 26.0601L44.6536 0.0723088C44.7512 -0.090386 44.6355 0.0723088 44.4475 0.0723088Z" fill="#0034AC"></path> <path d="M72.7962 16.7286H70.1027C69.784 16.7286 69.4684 16.7916 69.1742 16.9141C68.88 17.0366 68.613 17.2161 68.3885 17.4423C68.164 17.6685 67.9865 17.9369 67.8662 18.232C67.7459 18.5271 67.6852 18.8431 67.6876 19.1618V22.3506C67.6876 22.6866 67.6213 23.0192 67.4926 23.3296C67.364 23.64 67.1753 23.9219 66.9376 24.1593C66.6999 24.3967 66.4177 24.5849 66.1071 24.7132C65.7966 24.8414 65.4638 24.9072 65.1278 24.9067H61.9571C61.2481 24.9072 60.546 24.7679 59.8908 24.4968C59.2357 24.2257 58.6405 23.8281 58.1392 23.3268C57.6378 22.8254 57.2402 22.2302 56.9691 21.5751C56.698 20.92 56.5588 20.2178 56.5592 19.5088V14.1797C56.5588 13.4705 56.698 12.7682 56.9691 12.1129C57.2401 11.4576 57.6377 10.8621 58.1389 10.3605C58.6402 9.85887 59.2354 9.46094 59.8906 9.18944C60.5457 8.91795 61.2479 8.77821 61.9571 8.77821H72.102C72.6773 8.77821 73.2291 8.54967 73.6359 8.14285C74.0427 7.73603 74.2713 7.18427 74.2713 6.60895V5.19893C74.2713 4.6236 74.0427 4.07184 73.6359 3.66503C73.2291 3.25821 72.6773 3.02966 72.102 3.02966H58.2983C56.9544 3.03013 55.6238 3.29572 54.3827 3.8112C53.1416 4.32668 52.0144 5.08194 51.0657 6.03372C50.1169 6.9855 49.3653 8.11509 48.8537 9.35781C48.3422 10.6005 48.0808 11.9319 48.0846 13.2758V20.5067C48.0837 23.2168 49.1591 25.8164 51.0744 27.7337C52.9897 29.6511 55.5881 30.7292 58.2983 30.7312H70.7426C71.3294 30.7297 71.9102 30.6127 72.4519 30.3869C72.9935 30.161 73.4853 29.8306 73.8993 29.4147C74.3132 28.9987 74.6412 28.5053 74.8644 27.9626C75.0877 27.4198 75.2019 26.8385 75.2004 26.2516V19.1618C75.2028 18.844 75.1425 18.5289 75.0228 18.2345C74.9032 17.9401 74.7267 17.6722 74.5033 17.4462C74.28 17.2201 74.0142 17.0404 73.7213 16.9172C73.4283 16.7941 73.1139 16.73 72.7962 16.7286Z" fill="#0034AC"></path> <path d="M106.742 3.16336C106.025 3.16336 105.338 3.44779 104.831 3.95417C104.324 4.46055 104.038 5.14749 104.037 5.8641V20.4849C104.038 20.7433 103.955 20.995 103.802 21.2026C103.648 21.4103 103.431 21.5628 103.184 21.6375C102.937 21.7122 102.672 21.7052 102.429 21.6174C102.186 21.5296 101.978 21.3657 101.835 21.1502L90.6276 5.38686C90.0856 4.57274 89.3508 3.90515 88.4886 3.44344C87.6263 2.98174 86.6634 2.74022 85.6853 2.74036V2.74036C84.1137 2.74419 82.6078 3.37145 81.4982 4.48446C80.3886 5.59747 79.7659 7.10527 79.7668 8.67691V28.2798C79.7919 28.952 80.0766 29.5883 80.561 30.055C81.0454 30.5217 81.6919 30.7824 82.3645 30.7824C83.0372 30.7824 83.6836 30.5217 84.1681 30.055C84.6525 29.5883 84.9372 28.952 84.9622 28.2798V13.0154C84.9622 10.1231 86.4446 10.2605 89.3658 14.8449L99.1637 28.3196C99.6579 28.9933 100.304 29.5408 101.05 29.9177C101.796 30.2947 102.62 30.4903 103.455 30.4889H103.763C105.271 30.4879 106.718 29.8879 107.784 28.8208C108.851 27.7537 109.45 26.3068 109.45 24.7982V5.8641C109.45 5.50882 109.38 5.15704 109.243 4.8289C109.107 4.50076 108.908 4.20271 108.656 3.95183C108.404 3.70095 108.106 3.50216 107.777 3.36686C107.449 3.23157 107.097 3.16241 106.742 3.16336V3.16336Z" fill="#0034AC"></path> <path d="M134.823 15.6548L121.478 12.3359C121.067 12.215 120.714 11.9501 120.483 11.5896C120.252 11.2292 120.158 10.7975 120.22 10.3737C120.281 9.94998 120.494 9.56266 120.818 9.28286C121.142 9.00307 121.556 8.84958 121.984 8.85058H135.361C136.061 8.85058 136.733 8.57252 137.228 8.07756C137.723 7.5826 138.001 6.91129 138.001 6.21131V5.84977C138.001 5.50335 137.932 5.16032 137.8 4.84031C137.667 4.5203 137.473 4.22959 137.227 3.9848C136.982 3.74001 136.691 3.54594 136.371 3.4137C136.051 3.28146 135.708 3.21364 135.361 3.21411H119.869C119.024 3.21364 118.188 3.37968 117.407 3.70274C116.627 4.02581 115.918 4.49956 115.32 5.0969C114.723 5.69425 114.249 6.40348 113.926 7.18405C113.603 7.96461 113.437 8.8012 113.437 9.64598V9.64598C113.437 13.9845 114.424 17.3433 120.332 19.2377L132.86 22.7339C133.119 22.8195 133.34 22.9949 133.482 23.2286C133.624 23.4622 133.678 23.7389 133.634 24.0088C133.591 24.2788 133.453 24.5244 133.244 24.7015C133.036 24.8787 132.771 24.9758 132.498 24.9754H116.717C116.034 24.9754 115.379 25.2467 114.896 25.7294C114.414 26.2122 114.142 26.8669 114.142 27.5496V28.4752C114.142 29.1579 114.414 29.8127 114.896 30.2954C115.379 30.7782 116.034 31.0494 116.717 31.0494H132.769C134.687 31.0494 136.526 30.2876 137.882 28.9315C139.238 27.5755 140 25.7363 140 23.8185V22.5893C140 21.0296 139.496 19.5117 138.563 18.262C137.63 17.0123 136.318 16.0978 134.823 15.6548V15.6548Z" fill="#0034AC"></path> </svg> 