<?xml version="1.0" standalone="no"?>
<!DOCTYPE svg PUBLIC "-//W3C//DTD SVG 20010904//EN"
 "http://www.w3.org/TR/2001/REC-SVG-20010904/DTD/svg10.dtd">
<svg version="1.0" xmlns="http://www.w3.org/2000/svg"
 width="275.000000pt" height="119.000000pt" viewBox="0 0 275.000000 119.000000"
 preserveAspectRatio="xMidYMid meet">

<g transform="translate(0.000000,119.000000) scale(0.100000,-0.100000)"
fill="#000000" stroke="none">
<path d="M537 1086 c-17 -116 4 -196 67 -265 24 -25 47 -56 51 -69 12 -39 -5
-99 -47 -164 -41 -63 -34 -63 35 1 82 76 100 167 48 237 -15 21 -41 50 -56 64
-40 37 -76 114 -84 184 l-7 61 -7 -49z"/>
<path d="M449 968 c-34 -73 -31 -129 10 -195 26 -41 34 -66 39 -125 l7 -73 23
47 c32 68 30 137 -4 169 -50 46 -70 115 -54 184 5 22 8 41 6 42 -1 2 -13 -20
-27 -49z"/>
<path d="M838 343 c17 -7 17 -299 0 -306 -7 -3 11 -6 41 -6 47 -1 52 1 37 12
-14 10 -16 25 -14 77 l3 65 73 3 72 3 0 -69 c0 -39 -5 -73 -12 -80 -9 -9 -1
-12 37 -12 38 0 46 3 37 12 -17 17 -17 279 0 296 9 9 1 12 -37 12 -38 0 -46
-3 -37 -12 7 -7 12 -38 12 -70 l0 -58 -75 0 -75 0 0 60 c0 46 4 61 18 69 13 8
4 10 -38 10 -30 0 -49 -3 -42 -6z"/>
<path d="M1242 330 c-48 -29 -72 -75 -72 -138 0 -93 48 -152 128 -160 100 -9
167 54 167 158 0 64 -30 122 -75 145 -41 21 -109 19 -148 -5z m102 0 c43 -16
66 -66 66 -141 0 -52 -5 -73 -22 -99 -29 -42 -67 -56 -105 -38 -82 39 -85 229
-4 273 32 17 33 17 65 5z"/>
<path d="M1528 343 c17 -7 17 -299 0 -306 -7 -3 12 -6 42 -6 42 0 51 2 38 10
-14 8 -18 24 -18 76 l0 65 29 -5 c50 -10 100 10 118 49 37 77 -20 125 -147
123 -41 0 -69 -3 -62 -6z m151 -39 c27 -34 26 -54 0 -88 -16 -21 -28 -26 -53
-24 l-31 3 -3 68 -3 67 35 0 c25 0 40 -7 55 -26z"/>
<path d="M1760 318 c0 -32 0 -32 16 -10 11 16 25 22 55 22 l39 0 0 -138 c0
-94 -4 -142 -12 -150 -9 -9 0 -12 43 -12 41 1 50 3 37 11 -16 9 -18 27 -18
149 l0 140 37 0 c20 0 45 -7 55 -17 17 -15 18 -15 18 10 l0 27 -135 0 -135 0
0 -32z"/>
</g>
</svg>
