<svg width="104" height="36" viewBox="0 0 104 36" fill="none" xmlns="http://www.w3.org/2000/svg">
<path fill-rule="evenodd" clip-rule="evenodd" d="M10.0214 7.26058C10.7878 6.81713 11.1927 5.90301 11.1927 5.01639C11.1927 2.24592 13.4346 0 16.2 0C18.9654 0 21.2073 2.24592 21.2073 5.01639C21.2073 5.90301 21.6122 6.81713 22.3786 7.26058C23.1491 7.70645 24.1367 7.59428 24.909 7.15145C25.641 6.73172 26.4889 6.4918 27.3927 6.4918C30.1582 6.4918 32.4 8.73772 32.4 11.5082C32.4 13.3446 31.4151 14.9505 29.9455 15.8246C29.1702 16.2858 28.5709 17.0966 28.5709 18C28.5709 18.9034 29.1702 19.7142 29.9455 20.1754C31.4151 21.0495 32.4 22.6554 32.4 24.4918C32.4 27.2623 30.1582 29.5082 27.3927 29.5082C26.4889 29.5082 25.641 29.2683 24.909 28.8485C24.1367 28.4057 23.1491 28.2935 22.3786 28.7394C21.6122 29.1829 21.2073 30.097 21.2073 30.9836C21.2073 33.7541 18.9654 36 16.2 36C13.4346 36 11.1927 33.7541 11.1927 30.9836C11.1927 30.097 10.7878 29.1829 10.0214 28.7394C9.25092 28.2935 8.26331 28.4057 7.49104 28.8485C6.75904 29.2683 5.91112 29.5082 5.00727 29.5082C2.24183 29.5082 0 27.2623 0 24.4918C0 22.6554 0.984951 21.0495 2.45448 20.1754C3.22982 19.7142 3.82909 18.9034 3.82909 18C3.82909 17.0966 3.22982 16.2858 2.45448 15.8246C0.984951 14.9505 0 13.3446 0 11.5082C0 8.73772 2.24183 6.4918 5.00727 6.4918C5.91112 6.4918 6.75904 6.73172 7.49104 7.15145C8.26331 7.59428 9.25092 7.70645 10.0214 7.26058ZM21.1891 9.2989C20.3207 8.79808 19.2701 9.105 18.367 9.53997C17.7113 9.85582 16.9763 10.0328 16.2 10.0328C15.4237 10.0328 14.6887 9.85582 14.033 9.53997C13.1299 9.105 12.0793 8.79808 11.2109 9.2989C11.1033 9.36096 10.997 9.42497 10.8919 9.49088C10.2304 9.90592 10.0145 10.7262 10.0145 11.5082C10.0145 13.2357 9.14293 14.7592 7.81624 15.6615C6.98259 16.2285 6.18545 16.9906 6.18545 18C6.18545 19.0094 6.98259 19.7715 7.81624 20.3385C9.14293 21.2408 10.0145 22.7643 10.0145 24.4918C10.0145 25.2738 10.2304 26.0941 10.8919 26.5091C10.997 26.575 11.1033 26.639 11.2109 26.7011C12.0793 27.2019 13.1299 26.895 14.033 26.46C14.6887 26.1442 15.4237 25.9672 16.2 25.9672C16.9763 25.9672 17.7113 26.1442 18.367 26.46C19.2701 26.895 20.3207 27.2019 21.1891 26.7011C21.2967 26.639 21.403 26.575 21.5081 26.5091C22.1696 26.0941 22.3855 25.2738 22.3855 24.4918C22.3855 22.7643 23.2571 21.2408 24.5838 20.3385C25.4174 19.7715 26.2145 19.0094 26.2145 18C26.2145 16.9906 25.4174 16.2285 24.5838 15.6615C23.2571 14.7592 22.3855 13.2357 22.3855 11.5082C22.3855 10.7262 22.1696 9.90592 21.5081 9.49088C21.403 9.42497 21.2967 9.36096 21.1891 9.2989Z" fill="url(#paint0_linear_394_586)"/>
<path d="M43.2 23.8286V12.3429H45.9248L51.6981 19.3886V12.3429H54.6273V23.8286H51.9024L46.1292 16.8V23.8286H43.2Z" fill="#04030D"/>
<path d="M56.582 19.6457C56.582 18.4114 57.0248 17.3829 57.9104 16.56C58.8073 15.7257 59.9143 15.3086 61.2313 15.3086C62.5483 15.3086 63.6552 15.7257 64.5522 16.56C65.4605 17.3829 65.9146 18.4114 65.9146 19.6457C65.9146 20.88 65.4661 21.9143 64.5692 22.7486C63.6609 23.5829 62.5483 24 61.2313 24C59.9143 24 58.8073 23.5829 57.9104 22.7486C57.0248 21.9143 56.582 20.88 56.582 19.6457ZM59.954 20.9829C60.2719 21.3371 60.6977 21.5143 61.2313 21.5143C61.7649 21.5143 62.1963 21.3429 62.5256 21C62.8548 20.6457 63.0194 20.1943 63.0194 19.6457C63.0194 19.1086 62.8548 18.6629 62.5256 18.3086C62.1963 17.9543 61.7649 17.7771 61.2313 17.7771C60.709 17.7771 60.2833 17.9543 59.954 18.3086C59.6361 18.6629 59.4772 19.1086 59.4772 19.6457C59.4772 20.1943 59.6361 20.64 59.954 20.9829Z" fill="#04030D"/>
<path d="M66.2573 15.48H69.2717L71.162 20.1257L73.0865 15.48H76.0668L72.3371 23.8286H69.987L66.2573 15.48Z" fill="#04030D"/>
<path d="M85.3085 19.6629C85.3085 19.9371 85.2914 20.2114 85.2574 20.4857H79.2116C79.5636 21.2629 80.3867 21.6514 81.681 21.6514C82.5779 21.6514 83.4749 21.4914 84.3718 21.1714V23.4686C83.5316 23.8229 82.5496 24 81.4256 24C79.8815 24 78.6553 23.6057 77.747 22.8171C76.8501 22.0286 76.4016 20.9714 76.4016 19.6457C76.4016 18.4 76.8217 17.3657 77.6619 16.5429C78.5134 15.72 79.5806 15.3086 80.8636 15.3086C82.1465 15.3086 83.2081 15.72 84.0482 16.5429C84.8884 17.3657 85.3085 18.4057 85.3085 19.6629ZM80.8636 17.64C79.9893 17.64 79.4217 18.0286 79.1605 18.8057H82.5155C82.2657 18.0286 81.7151 17.64 80.8636 17.64Z" fill="#04030D"/>
<path d="M87.0429 23.8286V12H89.904V18.2743L92.0498 15.48H95.4558L92.3223 19.4571L95.6261 23.8286H92.2371L89.8529 20.5886H89.904V23.8286H87.0429Z" fill="#04030D"/>
<path d="M97.2053 16.08C97.7957 15.5657 98.6131 15.3086 99.6577 15.3086C100.759 15.3086 101.741 15.4686 102.604 15.7886V18.0171C101.582 17.6971 100.617 17.5371 99.7087 17.5371C99.1751 17.5371 98.9083 17.6629 98.9083 17.9143C98.9083 18.0286 98.9764 18.12 99.1127 18.1886C99.2489 18.2457 99.4987 18.3143 99.862 18.3943L100.577 18.5486C101.486 18.7429 102.15 19.04 102.57 19.44C102.99 19.8286 103.2 20.3886 103.2 21.12C103.2 21.9771 102.882 22.6743 102.246 23.2114C101.61 23.7371 100.691 24 99.4874 24C98.4201 24 97.438 23.8114 96.5411 23.4343V21.0857C97.5743 21.52 98.5961 21.7371 99.6066 21.7371C100.265 21.7371 100.594 21.5886 100.594 21.2914C100.594 21.1657 100.532 21.0743 100.407 21.0171C100.282 20.9486 100.038 20.88 99.6747 20.8114L98.8743 20.64C97.1712 20.2743 96.3197 19.4286 96.3197 18.1029C96.3197 17.2686 96.6149 16.5943 97.2053 16.08Z" fill="#04030D"/>
<defs>
<linearGradient id="paint0_linear_394_586" x1="32.4" y1="1.74441e-06" x2="-0.065057" y2="35.9412" gradientUnits="userSpaceOnUse">
<stop offset="0.0978887" stop-color="#91C95B"/>
<stop offset="0.290514" stop-color="#4EBD91"/>
<stop offset="0.454668" stop-color="#25BDB7"/>
<stop offset="0.637411" stop-color="#0BA4D0"/>
<stop offset="1" stop-color="#3B65B0"/>
</linearGradient>
</defs>
</svg>
