<?xml version="1.0" standalone="no"?>
<!DOCTYPE svg PUBLIC "-//W3C//DTD SVG 20010904//EN"
 "http://www.w3.org/TR/2001/REC-SVG-20010904/DTD/svg10.dtd">
<svg version="1.0" xmlns="http://www.w3.org/2000/svg"
 width="1024.000000pt" height="766.000000pt" viewBox="0 0 1024.000000 766.000000"
 preserveAspectRatio="xMidYMid meet">

<g transform="translate(0.000000,766.000000) scale(0.100000,-0.100000)"
fill="#000000" stroke="none">
<path d="M4940 6690 l0 -960 185 0 185 0 0 960 0 960 -185 0 -185 0 0 -960z"/>
<path d="M4517 7214 c-4 -4 -7 -439 -7 -966 l0 -958 183 2 182 3 0 960 0 960
-176 3 c-96 1 -178 -1 -182 -4z"/>
<path d="M5387 7213 c-4 -3 -7 -438 -7 -965 l0 -958 185 0 185 0 0 965 0 965
-178 0 c-98 0 -182 -3 -185 -7z"/>
<path d="M4070 5903 l0 -877 185 -185 185 -186 0 1063 0 1062 -185 0 -185 0 0
-877z"/>
<path d="M5820 5723 l0 -1058 185 186 185 185 0 872 0 872 -185 0 -185 0 0
-1057z"/>
<path d="M3640 5902 l0 -437 180 -180 180 -180 0 618 0 617 -180 0 -180 0 0
-438z"/>
<path d="M6260 5723 l0 -618 180 180 180 180 0 437 0 438 -180 0 -180 0 0
-617z"/>
<path d="M7 2604 c-4 -4 -7 -220 -7 -481 l0 -473 145 0 145 0 0 165 0 165 258
0 c141 0 286 5 321 10 161 27 221 109 221 305 0 169 -47 254 -160 291 -48 15
-107 18 -485 22 -237 2 -433 0 -438 -4z m752 -229 c56 -29 64 -103 16 -151
-24 -24 -24 -24 -255 -24 l-230 0 0 95 0 95 220 0 c174 0 227 -3 249 -15z"/>
<path d="M1492 2600 c-123 -17 -189 -68 -218 -166 -13 -45 -15 -101 -12 -331
3 -248 5 -282 22 -313 30 -56 66 -88 125 -112 52 -20 76 -22 348 -26 401 -5
480 10 545 103 42 61 50 128 46 409 -3 247 -3 252 -29 307 -15 32 -40 66 -58
79 -68 47 -107 53 -416 56 -159 1 -318 -1 -353 -6z m491 -221 c68 -19 77 -47
77 -242 0 -263 -4 -267 -256 -267 -250 0 -257 7 -252 274 3 192 7 203 73 232
37 16 302 19 358 3z"/>
<path d="M2754 2600 c-109 -15 -167 -49 -207 -125 -21 -38 -22 -56 -25 -315
-4 -310 2 -361 50 -416 74 -84 150 -97 541 -92 241 4 300 7 335 21 108 42 150
109 154 252 l3 90 -142 3 -143 3 0 -26 c0 -14 -7 -41 -15 -61 -23 -55 -58 -64
-240 -64 -252 0 -260 8 -260 260 0 195 7 218 79 245 58 22 348 19 384 -5 27
-18 52 -68 52 -104 l0 -26 140 0 c120 0 142 2 147 16 3 9 1 57 -5 107 -20 157
-78 217 -234 237 -87 11 -527 11 -614 0z"/>
<path d="M3780 2130 l0 -480 140 0 140 0 0 185 0 185 260 0 260 0 0 -185 0
-185 140 0 140 0 0 480 0 480 -140 0 -140 0 0 -185 0 -185 -260 0 -260 0 0
185 0 185 -140 0 -140 0 0 -480z"/>
<path d="M5265 2599 c-115 -17 -167 -49 -204 -128 l-26 -56 0 -275 c0 -312 6
-349 64 -410 67 -71 87 -73 584 -78 l437 -3 0 110 0 111 -345 0 c-383 0 -398
2 -435 62 -11 18 -20 45 -20 60 l0 28 398 2 397 3 3 108 3 107 -401 0 -400 0
0 29 c0 40 40 94 80 108 24 8 140 12 378 12 l342 1 0 110 0 110 -397 -1 c-219
-1 -425 -5 -458 -10z"/>
<path d="M6958 2523 l-3 -88 -260 -5 c-247 -5 -262 -6 -308 -28 -93 -47 -140
-137 -139 -272 0 -130 50 -213 157 -262 47 -22 64 -23 303 -26 l252 -3 0 -95
0 -94 140 0 140 0 0 94 0 94 248 4 c278 4 288 6 366 78 61 56 81 112 80 220 0
137 -51 222 -158 271 -36 16 -69 19 -288 19 l-248 0 0 90 0 90 -140 0 -139 0
-3 -87z m-3 -388 l0 -100 -155 -3 c-177 -3 -205 4 -227 55 -25 61 5 132 62
146 11 3 88 4 170 3 l150 -1 0 -100z m642 72 c38 -37 40 -114 5 -149 -21 -22
-31 -23 -192 -26 l-170 -3 0 106 0 107 165 -4 165 -3 27 -28z"/>
<path d="M7940 2500 l0 -110 195 0 195 0 0 -370 0 -370 140 0 140 0 0 370 0
370 205 0 205 0 0 110 0 110 -540 0 -540 0 0 -110z"/>
<path d="M9157 2603 c-4 -3 -7 -219 -7 -480 l0 -473 403 0 c228 0 429 5 466
10 168 28 230 123 219 340 -8 151 -52 220 -165 257 -38 13 -111 17 -345 21
l-298 4 0 164 0 164 -133 0 c-74 0 -137 -3 -140 -7z m762 -570 c44 -41 45 -96
5 -137 l-27 -26 -233 0 -234 0 0 88 c0 49 3 92 7 95 3 4 107 7 230 7 l223 0
29 -27z"/>
<path d="M3350 320 l0 -320 85 0 85 0 0 89 0 89 128 3 c148 5 184 19 217 84
16 32 20 60 20 140 0 80 -4 108 -20 139 -42 84 -84 95 -332 96 l-183 0 0 -320z
m341 170 c16 -9 19 -22 19 -78 0 -40 -5 -73 -12 -80 -7 -7 -44 -12 -95 -12
l-83 0 0 90 0 90 76 0 c41 0 84 -5 95 -10z"/>
<path d="M3982 323 l3 -318 83 -3 82 -3 0 126 0 125 110 0 109 0 3 -122 3
-123 83 -3 82 -3 0 321 0 321 -82 -3 -83 -3 -3 -117 -3 -118 -109 0 -110 0 0
120 0 120 -85 0 -85 0 2 -317z"/>
<path d="M5162 323 l3 -318 83 -3 82 -3 0 251 0 250 140 0 140 0 0 70 0 70
-225 0 -225 0 2 -317z"/>
<path d="M5700 321 l0 -321 85 0 85 0 0 89 0 89 128 4 c153 4 184 16 214 84
30 69 28 217 -3 281 -40 80 -65 87 -306 91 l-203 4 0 -321z m342 162 c13 -12
18 -30 18 -70 0 -87 -6 -93 -105 -93 l-85 0 0 90 0 90 77 0 c57 0 81 -4 95
-17z"/>
<path d="M6330 320 l0 -320 85 0 85 0 0 245 0 245 110 0 110 0 0 -245 0 -245
85 0 85 0 0 320 0 320 -280 0 -280 0 0 -320z"/>
<path d="M4640 235 l0 -45 210 0 210 0 0 45 0 45 -210 0 -210 0 0 -45z"/>
</g>
</svg>
