<svg width="48" height="48" viewBox="0 0 48 48" fill="none" xmlns="http://www.w3.org/2000/svg">
<path d="M5 24C5 13.5066 13.5066 5 24 5C28.2019 5 32.0812 6.36224 35.2264 8.66959L37.0009 6.25072C33.3586 3.57859 28.8614 2 24 2C11.8497 2 2 11.8497 2 24C2 36.1503 11.8497 46 24 46C36.1503 46 46 36.1503 46 24C46 21.1804 45.4688 18.4813 44.4997 15.9998L41.7053 17.0911C42.5407 19.2304 43 21.5598 43 24C43 34.4934 34.4934 43 24 43C13.5066 43 5 34.4934 5 24Z" fill="black"/>
<path d="M43.0904 10.5286L40.9094 8.46875L24.9393 25.3782L17.0298 17.9082L14.97 20.0892L25.0605 29.6191L43.0904 10.5286Z" fill="black"/>
</svg>
