<svg width="48" height="48" viewBox="0 0 48 48" fill="none" xmlns="http://www.w3.org/2000/svg">
<path d="M10.75 23.75C10.75 14.6373 18.1373 7.25 27.25 7.25C36.3627 7.25 43.75 14.6373 43.75 23.75C43.75 32.8627 36.3627 40.25 27.25 40.25V43.25C38.0196 43.25 46.75 34.5196 46.75 23.75C46.75 12.9804 38.0196 4.25 27.25 4.25C16.4804 4.25 7.75 12.9804 7.75 23.75H10.75Z" fill="black"/>
<path d="M34.4102 27.8481L25.75 23.25V13.25H28.75V21.1161L35.9102 25.25L34.4102 27.8481Z" fill="black"/>
<path d="M10.75 32.25H20.75V35.25H10.75V32.25Z" fill="black"/>
<path d="M2.75 39.25H20.75V42.25H2.75V39.25Z" fill="black"/>
</svg>
