<svg width="48" height="48" viewBox="0 0 48 48" fill="none" xmlns="http://www.w3.org/2000/svg">
<path fill-rule="evenodd" clip-rule="evenodd" d="M46 24C46 36.1503 36.1503 46 24 46C11.8497 46 2 36.1503 2 24C2 11.8497 11.8497 2 24 2C36.1503 2 46 11.8497 46 24ZM43 24C43 34.4934 34.4934 43 24 43C13.5066 43 5 34.4934 5 24C5 13.5066 13.5066 5 24 5C34.4934 5 43 13.5066 43 24Z" fill="black"/>
<path fill-rule="evenodd" clip-rule="evenodd" d="M46 24C46 36.1503 36.1503 46 24 46C11.8497 46 2 36.1503 2 24C2 11.8497 11.8497 2 24 2C36.1503 2 46 11.8497 46 24ZM43 24C43 34.4934 34.4934 43 24 43C13.5066 43 5 34.4934 5 24C5 13.5066 13.5066 5 24 5C34.4934 5 43 13.5066 43 24Z" fill="black"/>
<path d="M24.7652 9.64844L15.8464 22.5807C14.7027 24.2392 15.8898 26.5 17.9045 26.5H29.6819L20.874 36.5091L23.1261 38.491L32.6648 27.6516C34.0859 26.0366 32.9392 23.5 30.788 23.5H18.8567L27.2349 11.3516L24.7652 9.64844Z" fill="black"/>
</svg>
