<svg width="96" height="88" viewBox="0 0 96 88" fill="none" xmlns="http://www.w3.org/2000/svg">
<path d="M2.66667 2.66666C0.133333 5.2 0 7.06666 0 36C0 64.9333 0.133333 66.8 2.66667 69.3333C5.2 71.8667 7.06667 72 48 72C88.9333 72 90.8 71.8667 93.3333 69.3333C95.8667 66.8 96 64.9333 96 36C96 7.06666 95.8667 5.2 93.3333 2.66666C90.8 0.13333 88.9333 -3.75509e-06 48 -3.75509e-06C7.06667 -3.75509e-06 5.2 0.13333 2.66667 2.66666ZM88 32V56H48H8V48V40H15.2C21.8667 40 22.6667 39.6 24.8 36.1333C26.1333 33.8667 27.6 32.4 28.1333 32.8C28.6667 33.0667 31.0667 36.6667 33.3333 40.8C39.2 50.8 42.1333 50.4 45.8667 38.9333L48.8 30.4L51.0667 35.3333L53.3333 40.1333L64.4 39.7333C75.0667 39.3333 75.3333 39.2 75.3333 36C75.3333 32.8 74.9333 32.6667 66.9333 32.2667L58.6667 31.8667L54.5333 23.8667C51.3333 17.3333 50 15.8667 47.7333 16.2667C45.4667 16.5333 44.2667 18.5333 42.1333 24.9333C40.6667 29.6 39.2 33.3333 38.8 33.3333C38.4 33.3333 36.2667 30.2667 34.2667 26.6667C29.4667 18.2667 26.8 18.1333 21.7333 26C18.4 31.3333 17.4667 32 13.0667 32H8V20V8H48H88V32ZM51.3333 64C51.3333 66.4 50.5333 67.4667 48.2667 67.7333C45.0667 68.2667 43.2 65.3333 44.5333 61.8667C44.9333 60.6667 46.5333 60 48.2667 60.2667C50.5333 60.5333 51.3333 61.6 51.3333 64Z" fill="black"/>
<path d="M24.5334 82.0001C24 83.0668 24 84.9335 24.5334 86.0001C25.2 87.7335 28.6667 88.0001 48.2667 87.7335L71.3334 87.3335V84.0001V80.6668L48.2667 80.2668C28.6667 80.0001 25.2 80.2668 24.5334 82.0001Z" fill="black"/>
</svg>
