<svg width="48" height="48" viewBox="0 0 48 48" fill="none" xmlns="http://www.w3.org/2000/svg">
<path fill-rule="evenodd" clip-rule="evenodd" d="M32 14H16C10.5 18.5 4 28 4 36V37C4 41.9706 8.02944 46 13 46H35C39.9706 46 44 41.9706 44 37V36C44 27.5 38.5 20.5 32 14ZM27.5593 29.8309C26.8814 29.5152 26.0075 29.192 24.9379 28.8613L24.3729 28.6809V24.3968C24.9002 24.5021 25.322 24.7351 25.6384 25.0958C25.9699 25.4416 26.1733 25.8625 26.2486 26.3585H29.6836C29.5631 25.1109 29.0358 24.0887 28.1017 23.292C27.1827 22.4803 25.9397 22.0218 24.3729 21.9166V20H23.5141V21.894C22.4595 21.9091 21.5104 22.097 20.6667 22.4577C19.838 22.8185 19.1827 23.3296 18.7006 23.991C18.2335 24.6524 18 25.4265 18 26.3134C18 27.3356 18.2335 28.1623 18.7006 28.7937C19.1827 29.41 19.7552 29.876 20.4181 30.1917C21.096 30.4923 21.9774 30.8005 23.0621 31.1161L23.5141 31.2514V35.6708C22.9115 35.5505 22.4294 35.2875 22.0678 34.8816C21.7062 34.4607 21.4953 33.9797 21.435 33.4386H18.0452C18.1507 34.7764 18.693 35.8662 19.6723 36.708C20.6667 37.5348 21.9473 38.0158 23.5141 38.1511V40H24.3729V38.1962H24.3955C25.6008 38.1962 26.6252 37.9932 27.4689 37.5874C28.3126 37.1665 28.9454 36.6178 29.3672 35.9414C29.7891 35.2499 30 34.4983 30 33.6866C30 32.6794 29.7589 31.8677 29.2768 31.2514C28.8098 30.6201 28.2373 30.1466 27.5593 29.8309ZM21.9548 27.5085C21.5932 27.1627 21.4124 26.7193 21.4124 26.1781C21.4124 25.6069 21.5932 25.1635 21.9548 24.8478C22.3314 24.5321 22.8512 24.3593 23.5141 24.3292V28.3878C22.8362 28.1323 22.3164 27.8392 21.9548 27.5085ZM26 35.1973C25.6083 35.5581 25.0659 35.746 24.3729 35.761V31.5445C25.081 31.785 25.6234 32.0782 26 32.4239C26.3917 32.7546 26.5876 33.198 26.5876 33.7542C26.5876 34.3405 26.3917 34.8215 26 35.1973Z" fill="black"/>
<path fill-rule="evenodd" clip-rule="evenodd" d="M19.4812 4C20.2836 2.81753 22.0054 2 24 2C25.9946 2 27.7164 2.81753 28.5188 4H31.9669C33.4027 4 34.3708 5.4681 33.8052 6.78784L32 11H16L14.1947 6.78784C13.6291 5.4681 14.5972 4 16.033 4H19.4812Z" fill="black"/>
</svg>
