<svg width="48" height="48" viewBox="0 0 48 48" fill="none" xmlns="http://www.w3.org/2000/svg">
<path fill-rule="evenodd" clip-rule="evenodd" d="M32.8 12.75C32.8 17.7206 28.7706 21.75 23.8 21.75C18.8295 21.75 14.8 17.7206 14.8 12.75C14.8 7.77944 18.8295 3.75 23.8 3.75C28.7706 3.75 32.8 7.77944 32.8 12.75ZM29.8 12.75C29.8 16.0637 27.1138 18.75 23.8 18.75C20.4863 18.75 17.8 16.0637 17.8 12.75C17.8 9.43629 20.4863 6.75 23.8 6.75C27.1138 6.75 29.8 9.43629 29.8 12.75Z" fill="black"/>
<path fill-rule="evenodd" clip-rule="evenodd" d="M40.8 39.75C40.8 31.4657 34.0843 24.75 25.8 24.75H21.8C13.5158 24.75 6.80005 31.4657 6.80005 39.75V41.75L12.4981 42.669C18.9973 43.7173 25.6154 43.802 32.1392 42.9204L40.8 41.75V39.75ZM21.8 27.75C15.3579 27.75 10.1015 32.8263 9.81256 39.1971L12.9758 39.7073C19.184 40.7086 25.5057 40.7895 31.7375 39.9474L37.7843 39.1303C37.4618 32.7909 32.2196 27.75 25.8 27.75H21.8Z" fill="black"/>
<path d="M12.0271 12.1445C9.09653 12.7746 6.8999 15.3804 6.8999 18.4993C6.8999 22.0891 9.81005 24.9993 13.3999 24.9993C14.4358 24.9993 15.4152 24.757 16.2843 24.3259L14.5939 21.7903C14.2213 21.9256 13.8192 21.9993 13.3999 21.9993C11.4669 21.9993 9.8999 20.4323 9.8999 18.4993C9.8999 17.0536 10.7765 15.8126 12.0271 15.2788V12.1445Z" fill="black"/>
<path d="M7 27.7061C4.12473 28.8873 2.10007 31.7155 2.1001 35.0166L2.10014 39.6165L5.10014 39.6164L5.1001 35.0165C5.10008 33.4406 5.84408 32.0384 7 31.142V27.7061Z" fill="black"/>
<path d="M34.9728 12.0234C38.2943 12.3135 40.8999 15.1017 40.8999 18.4985C40.8999 22.0884 37.9897 24.9985 34.3999 24.9985C33.1256 24.9985 31.9369 24.6318 30.9336 23.9981L32.5989 21.5002C33.125 21.8166 33.7412 21.9985 34.3999 21.9985C36.3329 21.9985 37.8999 20.4315 37.8999 18.4985C37.8999 16.7606 36.6333 15.3186 34.9728 15.0452V12.0234Z" fill="black"/>
<path d="M41 27.7061C43.8753 28.8873 45.8999 31.7155 45.8999 35.0166L45.8999 39.6165L42.8999 39.6164L42.8999 35.0165C42.8999 33.4406 42.1559 32.0384 41 31.142V27.7061Z" fill="black"/>
</svg>
