<svg width="48" height="48" viewBox="0 0 48 48" fill="none" xmlns="http://www.w3.org/2000/svg">
<path fill-rule="evenodd" clip-rule="evenodd" d="M20.1967 19.3785L18.5 21.4993L19.1106 22.9081C20.3307 25.7231 22.507 28.0158 25.2546 29.3807L26.4999 29.9993L29.8759 27.5742C30.1435 27.3819 30.4886 27.3339 30.7985 27.4456L42.5477 31.6819C43.4178 31.9956 43.9593 32.865 43.8571 33.7842L42.5741 45.3326C42.5314 45.7169 42.2162 46.0134 41.83 46.0325C20.2351 47.1027 2.1403 29.8822 2.14038 8.26086L2.14039 5.89881C2.14039 5.46227 2.47676 5.09946 2.91205 5.06649L15.2907 4.12882C16.2743 4.05432 17.1653 4.70805 17.3894 5.66865L20.3896 18.5265C20.4593 18.8251 20.3882 19.1391 20.1967 19.3785ZM15.0292 21.0355L16.358 24.1012C17.8597 27.5657 20.5383 30.3875 23.9199 32.0675L26.7831 33.4898L30.7712 30.6248L40.7884 34.2366L39.8059 43.0796C20.763 43.0149 5.14031 27.5377 5.14038 8.26087L5.14038 7.90629L14.6627 7.18499L17.2475 18.2626L15.0292 21.0355Z" fill="black"/>
<path d="M38.7014 10.3202C36.5866 7.98847 33.3874 6.5 29 6.5V3.5C34.1126 3.5 38.1634 5.26153 40.9236 8.30478C43.6644 11.3267 45 15.4648 45 20H42C42 16.0352 40.8356 12.6733 38.7014 10.3202Z" fill="black"/>
<path d="M33.2698 14.7479C32.2956 13.9069 31.11 13.556 30.3754 13.4948L30.6246 10.5052C31.89 10.6106 33.7044 11.1598 35.2302 12.4771C36.81 13.8409 38 15.9636 38 19H35C35 16.8364 34.19 15.5424 33.2698 14.7479Z" fill="black"/>
</svg>
