<svg width="48" height="48" viewBox="0 0 48 48" fill="none" xmlns="http://www.w3.org/2000/svg">
<path fill-rule="evenodd" clip-rule="evenodd" d="M33 24C33 28.9706 28.9706 33 24 33C19.0294 33 15 28.9706 15 24C15 19.0294 19.0294 15 24 15C28.9706 15 33 19.0294 33 24ZM30 24C30 27.3137 27.3137 30 24 30C20.6863 30 18 27.3137 18 24C18 20.6863 20.6863 18 24 18C27.3137 18 30 20.6863 30 24Z" fill="black"/>
<path fill-rule="evenodd" clip-rule="evenodd" d="M13.1138 9.6638C14.5822 8.54706 16.2274 7.65076 18 7.02423V2H31V7.41182C32.3816 7.99556 33.6751 8.74686 34.8551 9.64026L39.4282 7L45.9282 18.2583L41.6982 20.7005C41.8964 21.7701 42 22.873 42 24C42 25.2089 41.8808 26.3899 41.6536 27.5321L45.9282 30L39.4282 41.2583L34.66 38.5054C33.533 39.335 32.3058 40.0365 31 40.5882V46H18V40.9758C16.3053 40.3768 14.7271 39.5312 13.3085 38.4822L8.5 41.2583L2 30L6.33903 27.4949C6.11658 26.3643 5.99998 25.1958 5.99998 24C5.99998 22.8861 6.10116 21.7959 6.29482 20.7379L2 18.2583L8.5 7L13.1138 9.6638ZM38.3301 11.0981L41.8301 17.1603L38.3623 19.1624L38.7484 21.247C38.9134 22.1372 39 23.0572 39 24C39 25.0113 38.9003 25.9963 38.7112 26.9466L38.2917 29.0552L41.8301 31.0981L38.3301 37.1603L34.4612 34.9265L32.8815 36.0894C31.9416 36.7813 30.9192 37.3655 29.8324 37.8247L28 38.5989V43H21V38.8542L18.9997 38.1472C17.5899 37.6489 16.2753 36.9449 15.0922 36.07L13.5113 34.901L9.59808 37.1603L6.09808 31.0981L9.69672 29.0204L9.28259 26.9157C9.09748 25.9749 8.99998 25.0003 8.99998 24C8.99998 23.0682 9.08459 22.1587 9.24578 21.2781L9.62667 19.1975L6.09808 17.1603L9.59808 11.0981L13.3417 13.2595L14.9299 12.0517C16.1546 11.1202 17.5251 10.374 18.9997 9.85275L21 9.14576V5H28V9.40108L29.8324 10.1753C30.9823 10.6611 32.0601 11.2869 33.0442 12.0321L34.6312 13.2336L38.3301 11.0981Z" fill="black"/>
</svg>
