<svg width="48" height="48" viewBox="0 0 48 48" fill="none" xmlns="http://www.w3.org/2000/svg">
<path fill-rule="evenodd" clip-rule="evenodd" d="M29 21.75C33.9706 21.75 38 17.7206 38 12.75C38 7.77944 33.9706 3.75 29 3.75C24.0294 3.75 20 7.77944 20 12.75C20 17.7206 24.0294 21.75 29 21.75ZM29 18.75C32.3137 18.75 35 16.0637 35 12.75C35 9.43629 32.3137 6.75 29 6.75C25.6863 6.75 23 9.43629 23 12.75C23 16.0637 25.6863 18.75 29 18.75Z" fill="black"/>
<path fill-rule="evenodd" clip-rule="evenodd" d="M37.3392 42.9204L46 41.75V39.75C46 31.4657 39.2843 24.75 31 24.75H27C18.7157 24.75 12 31.4657 12 39.75V41.75L17.6981 42.669C24.1972 43.7173 30.8153 43.802 37.3392 42.9204ZM27 27.75C20.5579 27.75 15.3014 32.8263 15.0125 39.1971L18.1758 39.7073C24.3839 40.7086 30.7057 40.7895 36.9374 39.9474L42.9843 39.1303C42.6618 32.7909 37.4196 27.75 31 27.75H27Z" fill="black"/>
<path d="M16.5 9.33984C12.6434 9.60075 9.59595 12.8117 9.59595 16.7345C9.59595 20.8279 12.9143 24.1463 17.0077 24.1463C18.0947 24.1463 19.127 23.9123 20.057 23.4919L18.1798 20.9889C17.8065 21.0915 17.4135 21.1463 17.0077 21.1463C14.5712 21.1463 12.5959 19.171 12.5959 16.7345C12.5959 14.4696 14.3026 12.6034 16.5 12.3516V9.33984Z" fill="black"/>
<path d="M12 25.208C6.24517 26.9432 2.05485 32.3004 2.09997 38.617L4.92279 39.0759C6.44286 39.323 7.9695 39.5174 9.49997 39.659V36.6456C8.13062 36.5129 6.76464 36.336 5.40417 36.1148L5.36803 36.1089C6.16785 32.5814 8.68676 29.6961 12 28.3826V25.208Z" fill="black"/>
</svg>
