<svg width="48" height="48" viewBox="0 0 48 48" fill="none" xmlns="http://www.w3.org/2000/svg">
<path d="M23.5 2C29.299 2 34 6.70101 34 12.5C34 18.299 29.299 23 23.5 23C17.701 23 13 18.299 13 12.5C13 6.70101 17.701 2 23.5 2ZM23.5 5C19.3579 5 16 8.35786 16 12.5C16 16.6421 19.3579 20 23.5 20C27.6421 20 31 16.6421 31 12.5C31 8.35786 27.6421 5 23.5 5Z" fill="black"/>
<path d="M18.5 27.5C10.4919 27.5 4 33.9919 4 42V46H7V42C7 35.6487 12.1487 30.5 18.5 30.5H29.5C35.8513 30.5 41 35.6487 41 42V46H44V42C44 33.9919 37.5081 27.5 29.5 27.5H18.5Z" fill="black"/>
<path d="M23.5 35.5C17.701 35.5 13 40.201 13 46H16C16 41.8579 19.3579 38.5 23.5 38.5H24.5C28.6421 38.5 32 41.8579 32 46H35C35 40.201 30.299 35.5 24.5 35.5H23.5Z" fill="black"/>
</svg>
