<svg width="2082" height="348" viewBox="0 0 2082 348" fill="none" xmlns="http://www.w3.org/2000/svg">
<path d="M1158.13 52.1334C1102.93 59.7334 1065.47 91.4668 1053.07 140.933C1050.53 150.667 1050.13 156.4 1050.13 174.667C1050.13 201.2 1052.4 211.867 1062.8 233.067C1073.47 254.533 1090.4 271.333 1112.8 282.533C1148.13 300.267 1199.87 302 1236.13 286.8C1274.13 270.8 1297.73 242.667 1306.27 202.667C1309.73 186.133 1309.47 157.867 1305.6 142.4C1291.87 86.8001 1247.47 53.2001 1185.33 51.3334C1175.47 51.0668 1163.2 51.3334 1158.13 52.1334ZM1195.33 112.533C1223.2 119.867 1240 143.067 1240 174C1240 200.933 1228.13 221.067 1205.87 231.6C1197.2 235.733 1194.13 236.533 1183.6 237.067C1144.4 239.067 1118.53 214 1118.4 174C1118.4 148.667 1128.53 129.733 1148.27 118.133C1160.27 111.2 1181.07 108.667 1195.33 112.533Z" fill="#E73439"/>
<path d="M1891.33 52.5332C1857.6 57.8665 1828.93 74.1332 1810.4 98.5332C1788.4 127.6 1781.47 170.667 1792.13 211.467C1802.8 252 1833.2 280.8 1878.53 293.067C1890 296.133 1893.87 296.533 1914.67 296.533C1940.67 296.533 1952.93 294.667 1970.8 287.867C1998.27 277.333 2019.6 255.2 2028.67 228C2032.4 216.933 2036.13 199.2 2034.93 198C2034 197.067 1976.13 197.2 1972.67 198.133C1971.07 198.533 1968.4 202.267 1965.73 207.867C1957.2 225.867 1941.87 236 1921.6 237.067C1901.73 238.133 1886.27 232.533 1873.6 219.733C1861.6 207.733 1856 193.2 1856 174.667C1856 148.267 1869.33 126.133 1891.6 115.6C1900.27 111.6 1901.47 111.333 1916.67 111.333C1931.87 111.333 1933.07 111.6 1941.6 115.6C1952.13 120.533 1960 128.267 1964.67 138C1970 149.467 1969.47 149.333 2004.8 149.333H2035.73L2033.73 139.2C2027.07 104 2009.33 79.4665 1979.73 64.5332C1956.27 52.6665 1920.93 47.9999 1891.33 52.5332Z" fill="#E73439"/>
<path d="M46.667 174.001V289.334H81.3337H116V223.734V158.001L139.067 181.067L162 204.001H187.734H213.334V246.667V289.334H248H282.667V174.001V58.6673H248H213.334V101.334V144.001H164.667H116L115.734 101.601L115.334 59.334L81.067 58.934L46.667 58.6673V174.001Z" fill="#E73439"/>
<path d="M296.267 61.6006C297.333 63.334 318.267 98.534 342.933 140.001L387.733 215.334L388.667 252.267L389.733 289.334H424.133H458.667V253.601V217.734L441.467 187.867C432 171.467 411.467 135.734 395.733 108.667L367.333 59.334L330.8 58.934L294.267 58.6673L296.267 61.6006Z" fill="#E73439"/>
<path d="M462.001 88.3998C452.534 104.666 444.801 118.933 444.801 120C444.801 121.2 452.401 135.466 461.867 151.733C476.801 177.733 479.201 181.2 480.667 179.066C484.267 173.6 552.001 60.1331 552.001 59.4665C552.001 59.0665 535.601 58.6665 515.734 58.6665L479.334 58.7998L462.001 88.3998Z" fill="#E73439"/>
<path d="M565.334 173.867V289.334H599.734H634.001L633.601 238.001C633.334 209.734 633.734 186.667 634.267 186.667C634.934 186.667 646.134 197.467 659.334 210.667L683.334 234.667H690.001C702.801 234.667 726.134 231.867 736.001 229.201C749.467 225.601 760.534 219.067 769.467 209.734C778.801 200.001 782.801 192.934 787.201 178.801C795.867 151.201 791.734 114.934 777.734 93.6006C767.867 78.934 753.334 69.734 728.667 63.0673L715.334 59.4673L640.401 58.934L565.334 58.534V173.867ZM696.667 117.334C706.267 118.934 714.134 124.001 718.267 131.334C720.667 135.601 721.334 138.801 721.334 146.801C721.334 159.867 717.867 166.934 708.667 172.667L702.267 176.667L668.401 177.067L634.667 177.601V146.801V116.001H661.734C676.534 116.001 692.267 116.667 696.667 117.334Z" fill="#E73439"/>
<path d="M810.667 174.001V289.334H844.667H878.667V233.734V178.001L934.4 233.734L990 289.334L1010.67 289.201C1022 289.067 1041.07 288.534 1053.07 288.134L1074.8 287.334L1038.67 250.401L1002.53 213.467L1013.07 203.067C1021.2 194.934 1024.67 190.267 1028.27 182.667C1036.27 165.734 1038.67 149.601 1036.13 130.267C1031.47 95.2006 1015.33 75.334 983.334 65.4673C963.867 59.334 953.067 58.6673 879.734 58.6673H810.667V174.001ZM951.334 119.067C957.734 121.867 962.134 125.867 965.067 131.334C968 136.801 968 153.867 965.067 159.467C961.867 165.334 954.267 171.601 948.4 173.201C945.467 174.001 929.467 174.667 911.067 174.667H878.667V145.201V115.734L912.4 116.267C940.667 116.667 946.8 117.201 951.334 119.067Z" fill="#E73439"/>
<path d="M1312 88.0006V117.334H1354H1396V203.334V289.334H1430.67H1465.33V237.734V186.134L1431.07 151.734L1396.8 117.334L1472.67 117.067L1548.67 116.667V88.0006V59.334L1430.4 58.934L1312 58.6673V88.0006Z" fill="#E73439"/>
<path d="M1569.33 149.067V239.334L1594.4 264.401L1619.33 289.334H1696.4H1773.33L1773.07 261.601L1772.67 234.001L1705.73 233.601L1638.67 233.334V192.667C1638.67 170.267 1639.07 152.001 1639.73 152.001C1640.27 152.001 1650.93 162.134 1663.33 174.667L1686 197.334H1726.93H1768V174.001V150.667H1703.33H1638.67V132.667V114.667L1705.73 114.401L1772.67 114.001L1773.07 86.2673L1773.33 58.6673H1671.33H1569.33V149.067Z" fill="#E73439"/>
</svg>
